<?xml version="1.0" encoding="utf-8"?><!DOCTYPE svg PUBLIC "-//W3C//DTD SVG 1.1//EN" "http://www.w3.org/Graphics/SVG/1.1/DTD/svg11.dtd"><svg version="1.1" baseProfile="full" xmlns="http://www.w3.org/2000/svg" xmlns:xlink="http://www.w3.org/1999/xlink" xmlns:ev="http://www.w3.org/2001/xml-events"   height="155px"   width="164px" ><path fill-opacity="0.761" fill="rgb( 129, 189, 88 )" d="M91.875,71.6369999999999 C91.875,71.6369999999999 50.6799999999999,112.789 50.6799999999999,112.789 C49.7190000000001,113.748 48.46,114.228 47.201,114.228 C45.942,114.228 44.684,113.748 43.723,112.789 C43.723,112.789 29.107,98.188 29.107,98.188 C29.107,98.188 0,127.264 0,127.264 C0,127.264 0,155 0,155 C0,155 164,155 164,155 C164,155 164,74.878 164,74.878 C164,74.878 150.809,74.878 150.809,74.878 C150.809,74.878 126.443,99.218 126.443,99.218 C125.521,100.141 124.243,100.602 122.965,100.602 C121.687,100.602 120.409,100.141 119.486,99.218 C119.486,99.218 91.875,71.6369999999999 91.875,71.6369999999999  "/><path fill="rgb( 129, 189, 88 )" d="M164,56.647 C164,56.647 148.771,56.647 148.771,56.647 C147.466,56.647 146.215,57.165 145.292,58.087 C145.292,58.087 122.965,80.391 122.965,80.391 C122.965,80.391 95.354,52.8099999999999 95.354,52.8099999999999 C93.432,50.89 90.319,50.89 88.397,52.8099999999999 C88.397,52.8099999999999 47.201,93.961 47.201,93.961 C47.201,93.961 32.585,79.361 32.585,79.361 C30.664,77.441 27.55,77.441 25.628,79.361 C25.628,79.361 0,104.963 0,104.963 C0,104.963 0,118.863 0,118.863 C0,118.863 29.107,89.787 29.107,89.787 C29.107,89.787 43.723,104.387 43.723,104.387 C45.645,106.307 48.758,106.307 50.6799999999999,104.387 C50.6799999999999,104.387 91.875,63.236 91.875,63.236 C91.875,63.236 119.486,90.817 119.486,90.817 C121.331,92.662 124.598,92.662 126.443,90.817 C126.443,90.817 150.809,66.477 150.809,66.477 C150.809,66.477 164,66.477 164,66.477 C164,66.477 164,56.647 164,56.647 Z "/><path fill="rgb( 184, 235, 149 )" d="M104.96,58.34 C104.96,65.579 99.087,71.447 91.84,71.447 C84.593,71.447 78.72,65.579 78.72,58.34 C78.72,51.102 84.593,45.234 91.84,45.234 C99.087,45.234 104.96,51.102 104.96,58.34 Z "/><path fill="rgb( 55, 53, 58 )" d="M116.44,0.99099999999999 C116.44,0.99099999999999 67.24,0.99099999999999 67.24,0.99099999999999 C67.24,0.99099999999999 67.24,33.7569999999999 67.24,33.7569999999999 C67.24,33.7569999999999 85.234,33.7569999999999 85.234,33.7569999999999 C85.234,33.7569999999999 91.84,40.357 91.84,40.357 C91.84,40.357 98.446,33.7569999999999 98.446,33.7569999999999 C98.446,33.7569999999999 116.44,33.7569999999999 116.44,33.7569999999999 C116.44,33.7569999999999 116.44,0.99099999999999 116.44,0.99099999999999 Z "/><path fill="rgb( 255, 255, 255 )" d="M98.991,18.867 C98.991,18.867 97.471,20.176 97.471,20.176 C96.487,20.992 95.896,21.59 95.699,21.9690000000001 C96.782,21.829 97.83,21.758 98.843,21.758 C98.843,21.758 101.882,21.758 101.882,21.758 C101.882,22.1799999999999 101.861,22.574 101.819,22.9400000000001 C101.65,23.939 101.01,24.439 99.898,24.439 C99.898,24.439 93.546,24.439 93.546,24.439 C92.829,23.679 92.47,23.039 92.47,22.518 C92.47,21.449 93.2859999999999,20.1900000000001 94.918,18.741 C94.918,18.741 97.176,16.693 97.176,16.693 C97.95,15.99 98.337,15.28 98.337,14.562 C98.337,14.112 98.2,13.739 97.925,13.443 C97.651,13.148 97.274,13 96.796,13 C96.318,13 95.91,13.183 95.572,13.549 C95.234,13.915 94.995,14.3579999999999 94.855,14.879 C94.446,14.879 94.0170000000001,14.7910000000001 93.567,14.615 C93.117,14.439 92.8,14.21 92.6180000000001,13.929 C92.899,12.9160000000001 93.437,12.079 94.232,11.418 C95.027,10.756 96.04,10.426 97.271,10.426 C98.502,10.426 99.522,10.813 100.331,11.586 C101.14,12.36 101.544,13.38 101.544,14.646 C101.544,15.491 101.326,16.229 100.89,16.862 C100.454,17.495 99.821,18.164 98.991,18.867 ZM89.241,21.927 C89.241,21.927 89.2619999999999,23.404 89.2619999999999,23.404 C89.2619999999999,23.404 89.2619999999999,24.417 89.2619999999999,24.417 C88.826,24.502 88.319,24.544 87.7430000000001,24.544 C87.1660000000001,24.544 86.659,24.502 86.223,24.417 C86.223,24.417 86.223,23.404 86.223,23.404 C86.223,23.404 86.244,21.927 86.244,21.927 C86.244,21.927 84.746,21.9690000000001 84.746,21.9690000000001 C84.746,21.9690000000001 81.602,21.9690000000001 81.602,21.9690000000001 C81.151,21.2380000000001 80.926,20.591 80.926,20.028 C80.926,19.761 81.053,19.303 81.306,18.6559999999999 C81.306,18.6559999999999 84.746,10.573 84.746,10.573 C84.929,10.545 85.15,10.5309999999999 85.4109999999999,10.5309999999999 C85.671,10.5309999999999 86.044,10.581 86.529,10.679 C87.015,10.778 87.377,10.961 87.616,11.228 C87.616,11.228 86.054,14.921 86.054,14.921 C85.2380000000001,16.961 84.5069999999999,18.452 83.86,19.395 C83.86,19.395 83.923,19.5 83.923,19.5 C84.429,19.458 85.196,19.4160000000001 86.223,19.374 C86.223,19.374 86.223,18.086 86.223,18.086 C86.223,17.313 86.413,16.704 86.793,16.261 C87.173,15.818 87.707,15.596 88.397,15.596 C88.397,15.596 89.114,15.596 89.114,15.596 C89.114,15.596 89.2619999999999,15.723 89.2619999999999,15.723 C89.2619999999999,15.723 89.2619999999999,17.875 89.2619999999999,17.875 C89.2619999999999,17.875 89.241,19.353 89.241,19.353 C89.241,19.353 90.423,19.331 90.423,19.331 C90.423,19.331 91.056,19.331 91.056,19.331 C91.112,19.669 91.14,20.0700000000001 91.14,20.534 C91.14,20.999 91.077,21.463 90.95,21.927 C90.95,21.927 89.241,21.927 89.241,21.927 Z "/></svg>