<?xml version="1.0" encoding="utf-8"?><!DOCTYPE svg PUBLIC "-//W3C//DTD SVG 1.1//EN" "http://www.w3.org/Graphics/SVG/1.1/DTD/svg11.dtd"><svg version="1.1" baseProfile="full" xmlns="http://www.w3.org/2000/svg" xmlns:xlink="http://www.w3.org/1999/xlink" xmlns:ev="http://www.w3.org/2001/xml-events"   height="155px"   width="164px" ><path fill-opacity="0.761" fill="rgb( 129, 189, 88 )" d="M91.875,70.731 C91.875,70.731 50.6799999999999,111.882 50.6799999999999,111.882 C49.7190000000001,112.841 48.46,113.321 47.201,113.321 C45.942,113.321 44.684,112.841 43.723,111.882 C43.723,111.882 29.107,97.282 29.107,97.282 C29.107,97.282 0,126.357 0,126.357 C0,126.357 0,154.094 0,154.094 C0,154.094 164,154.094 164,154.094 C164,154.094 164,73.972 164,73.972 C164,73.972 150.809,73.972 150.809,73.972 C150.809,73.972 126.443,98.312 126.443,98.312 C125.521,99.234 124.243,99.696 122.965,99.696 C121.687,99.696 120.409,99.234 119.486,98.312 C119.486,98.312 91.875,70.731 91.875,70.731  "/><path fill="rgb( 129, 189, 88 )" d="M164,55.741 C164,55.741 148.771,55.741 148.771,55.741 C147.465,55.741 146.215,56.259 145.292,57.181 C145.292,57.181 122.965,79.485 122.965,79.485 C122.965,79.485 95.354,51.904 95.354,51.904 C93.432,49.984 90.318,49.984 88.397,51.904 C88.397,51.904 47.201,93.0549999999999 47.201,93.0549999999999 C47.201,93.0549999999999 32.585,78.455 32.585,78.455 C30.664,76.535 27.55,76.535 25.628,78.455 C25.628,78.455 0,104.057 0,104.057 C0,104.057 0,117.956 0,117.956 C0,117.956 29.107,88.881 29.107,88.881 C29.107,88.881 43.723,103.48 43.723,103.48 C45.644,105.4 48.758,105.4 50.6799999999999,103.48 C50.6799999999999,103.48 91.875,62.329 91.875,62.329 C91.875,62.329 119.486,89.9109999999999 119.486,89.9109999999999 C121.331,91.756 124.598,91.756 126.443,89.9109999999999 C126.443,89.9109999999999 150.809,65.571 150.809,65.571 C150.809,65.571 164,65.571 164,65.571 C164,65.571 164,55.741 164,55.741 Z "/><path fill="rgb( 184, 235, 149 )" d="M104.96,57.434 C104.96,64.673 99.087,70.5410000000001 91.84,70.5410000000001 C84.593,70.5410000000001 78.72,64.673 78.72,57.434 C78.72,50.196 84.593,44.328 91.84,44.328 C99.087,44.328 104.96,50.196 104.96,57.434 Z "/><path fill="rgb( 55, 53, 58 )" d="M116.44,0.08500000000004 C116.44,0.08500000000004 67.24,0.08500000000004 67.24,0.08500000000004 C67.24,0.08500000000004 67.24,32.851 67.24,32.851 C67.24,32.851 85.234,32.851 85.234,32.851 C85.234,32.851 91.84,39.45 91.84,39.45 C91.84,39.45 98.446,32.851 98.446,32.851 C98.446,32.851 116.44,32.851 116.44,32.851 C116.44,32.851 116.44,0.08500000000004 116.44,0.08500000000004 Z "/><path fill="rgb( 255, 255, 255 )" d="M102.37,20.917 C102.37,20.917 102.37,24.218 102.37,24.218 C102.37,24.218 99.3,24.218 99.3,24.218 C99.3,24.218 99.3,20.917 99.3,20.917 C99.3,20.917 93.16,20.917 93.16,20.917 C93.16,20.917 93.16,18.808 93.16,18.808 C93.16,18.808 98.384,10.374 98.384,10.374 C98.384,10.374 102.37,10.374 102.37,10.374 C102.37,10.374 102.37,18.489 102.37,18.489 C102.37,18.489 104.012,18.489 104.012,18.489 C104.012,18.489 104.012,20.917 104.012,20.917 C104.012,20.917 102.37,20.917 102.37,20.917 ZM99.323,12.8440000000001 C98.874,13.7380000000001 98.49,14.548 98.02,15.422 C98.02,15.422 96.188,18.446 96.188,18.446 C96.188,18.446 96.1660000000001,18.489 96.1660000000001,18.489 C96.1660000000001,18.489 99.3,18.489 99.3,18.489 C99.3,18.489 99.3,15.422 99.3,15.422 C99.3,14.591 99.343,13.7380000000001 99.385,12.8440000000001 C99.385,12.8440000000001 99.323,12.8440000000001 99.323,12.8440000000001 ZM83.5890000000001,24.218 C83.5890000000001,24.218 89.302,13.079 89.302,13.079 C89.302,13.079 89.302,13.0359999999999 89.302,13.0359999999999 C89.302,13.0359999999999 82.948,13.0359999999999 82.948,13.0359999999999 C82.948,13.0359999999999 82.948,10.374 82.948,10.374 C82.948,10.374 92.735,10.374 92.735,10.374 C92.735,10.374 92.735,12.419 92.735,12.419 C92.735,12.419 87.021,24.218 87.021,24.218 C87.021,24.218 83.5890000000001,24.218 83.5890000000001,24.218 Z "/></svg>