<?xml version="1.0" encoding="utf-8"?><!DOCTYPE svg PUBLIC "-//W3C//DTD SVG 1.1//EN" "http://www.w3.org/Graphics/SVG/1.1/DTD/svg11.dtd"><svg version="1.1" baseProfile="full" xmlns="http://www.w3.org/2000/svg" xmlns:xlink="http://www.w3.org/1999/xlink" xmlns:ev="http://www.w3.org/2001/xml-events"   height="155px"   width="126px" ><path fill="rgb( 65, 74, 77 )" d="M101.361,137.716 C100.552,147.167 92.0940000000001,154.168 82.468,153.352 C82.468,153.352 16.999,147.805 16.999,147.805 C7.37400000000002,146.989 0.22699999999998,138.667 1.03700000000003,129.215 C1.03700000000003,129.215 10.664,16.758 10.664,16.758 C11.474,7.30700000000002 19.932,0.30700000000002 29.557,1.12199999999996 C29.557,1.12199999999996 95.026,6.66899999999998 95.026,6.66899999999998 C104.652,7.48500000000001 111.798,15.807 110.989,25.259 C110.989,25.259 101.361,137.716 101.361,137.716 Z "/><path fill-opacity="0.4" fill="rgb( 52, 52, 52 )" d="M56.889,140.966 C56.631,143.99 53.957,146.233 50.917,145.976 C47.877,145.718 45.624,143.057 45.883,140.033 C46.141,137.009 48.8150000000001,134.766 51.855,135.023 C54.895,135.281 57.148,137.942 56.889,140.966 Z "/><path fill-opacity="0.4" fill="rgb( 102, 102, 102 )" d="M66.044,15.206 C66.044,15.206 56.671,14.4109999999999 56.671,14.4109999999999 C56.671,14.4109999999999 56.936,11.313 56.936,11.313 C56.936,11.313 66.309,12.107 66.309,12.107 C66.309,12.107 66.044,15.206 66.044,15.206 Z "/><path fill="rgb( 255, 255, 255 )" d="M93.908,132.338 C93.908,132.338 9.29700000000003,125.169 9.29700000000003,125.169 C9.29700000000003,125.169 18.516,17.48 18.516,17.48 C18.516,17.48 103.127,24.649 103.127,24.649 C103.127,24.649 93.908,132.338 93.908,132.338 Z "/><path fill="rgb( 167, 167, 167 )" d="M88.779,100.434 C88.779,100.434 19.774,94.588 19.774,94.588 C19.774,94.588 20.175,89.91 20.175,89.91 C20.175,89.91 89.1799999999999,95.756 89.1799999999999,95.756 C89.1799999999999,95.756 88.779,100.434 88.779,100.434 ZM87.978,109.79 C87.978,109.79 18.974,103.943 18.974,103.943 C18.974,103.943 19.374,99.265 19.374,99.265 C19.374,99.265 88.379,105.111 88.379,105.111 C88.379,105.111 87.978,109.79 87.978,109.79 Z "/><path fill="rgb( 129, 189, 88 )" d="M20.707,83.696 C20.707,83.696 89.712,89.543 89.712,89.543 C89.712,89.543 93.052,50.525 93.052,50.525 C93.052,50.525 24.047,44.678 24.047,44.678 C24.047,44.678 20.707,83.696 20.707,83.696 Z "/><path fill="rgb( 188, 188, 188 )" d="M101.926,38.683 C101.926,38.683 17.3150000000001,31.514 17.3150000000001,31.514 C17.3150000000001,31.514 18.516,17.479 18.516,17.479 C18.516,17.479 103.127,24.648 103.127,24.648 C103.127,24.648 101.926,38.683 101.926,38.683 Z "/><path fill="rgb( 54, 62, 63 )" d="M124.962,143.65 C124.959,149.42 120.176,154.094 114.278,154.091 C114.278,154.091 83.766,154.074 83.766,154.074 C77.8680000000001,154.071 73.09,149.392 73.093,143.622 C73.093,143.622 73.13,74.973 73.13,74.973 C73.134,69.203 77.917,64.529 83.8150000000001,64.532 C83.8150000000001,64.532 114.326,64.548 114.326,64.548 C120.225,64.552 125.003,69.231 125,75.001 C125,75.001 124.962,143.65 124.962,143.65 Z "/><path fill-opacity="0.4" fill="rgb( 37, 37, 37 )" d="M103.604,144.944 C103.602,147.417 101.553,149.42 99.025,149.419 C96.496,149.418 94.449,147.412 94.45,144.939 C94.452,142.467 96.501,140.463 99.03,140.465 C101.558,140.466 103.605,142.472 103.604,144.944 Z "/><path fill-opacity="0.4" fill="rgb( 63, 63, 63 )" d="M102.118,72.004 C102.118,72.004 96.016,72 96.016,72 C96.016,72 96.0170000000001,69.016 96.0170000000001,69.016 C96.0170000000001,69.016 102.119,69.019 102.119,69.019 C102.119,69.019 102.118,72.004 102.118,72.004 Z "/><path fill="rgb( 255, 255, 255 )" d="M118.864,136.185 C118.864,136.185 79.199,136.164 79.199,136.164 C79.199,136.164 79.232,76.4690000000001 79.232,76.4690000000001 C79.232,76.4690000000001 118.897,76.49 118.897,76.49 C118.897,76.49 118.864,136.185 118.864,136.185 Z "/><path fill="rgb( 167, 167, 167 )" d="M114.296,121.259 C114.296,121.259 83.784,121.243 83.784,121.243 C83.784,121.243 83.7859999999999,118.258 83.7859999999999,118.258 C83.7859999999999,118.258 114.297,118.274 114.297,118.274 C114.297,118.274 114.296,121.259 114.296,121.259 ZM114.292,127.228 C114.292,127.228 83.7809999999999,127.211 83.7809999999999,127.211 C83.7809999999999,127.211 83.783,124.227 83.783,124.227 C83.783,124.227 114.294,124.243 114.294,124.243 C114.294,124.243 114.292,127.228 114.292,127.228 Z "/><path fill="rgb( 129, 189, 88 )" d="M83.788,113.78 C83.788,113.78 114.3,113.797 114.3,113.797 C114.3,113.797 114.313,89.919 114.313,89.919 C114.313,89.919 83.801,89.902 83.801,89.902 C83.801,89.902 83.788,113.78 83.788,113.78 Z "/><path fill="rgb( 188, 188, 188 )" d="M118.892,85.444 C118.892,85.444 79.227,85.423 79.227,85.423 C79.227,85.423 79.232,76.4690000000001 79.232,76.4690000000001 C79.232,76.4690000000001 118.897,76.49 118.897,76.49 C118.897,76.49 118.892,85.444 118.892,85.444 Z "/></svg>