<?xml version="1.0" encoding="utf-8"?>
<!-- Generator: Adobe Illustrator 18.1.0, SVG Export Plug-In . SVG Version: 6.00 Build 0)  -->
<svg version="1.1" id="Ebene_1" xmlns="http://www.w3.org/2000/svg" xmlns:xlink="http://www.w3.org/1999/xlink" x="0px" y="0px"
	 viewBox="0 0 194 205.2" enable-background="new 0 0 194 205.2" xml:space="preserve">
<g>
	<g>
		<path fill="#FFFFFF" d="M8.3,189L0,148.3c0.8-0.4,1.7-0.6,2.7-0.6c1.2,0,2,0.8,2.3,2.3l4.8,24.8c1.3,7.2,2.1,11,2.2,11.6
			c0.1,0.6,0.2,0.9,0.3,1s0.2,0.1,0.3,0.1l8-38.6c0.9-0.1,1.9-0.2,3.2-0.2c1.2,0,2.1,0.1,2.7,0.2l7.3,37.9c0.1,0.4,0.3,0.6,0.5,0.6
			c0.5-3.2,1.4-7.5,2.5-12.7l5.8-26.8c0.5-0.1,1.2-0.2,2.1-0.2c0.9,0,1.6,0.1,2.1,0.3l0.3,0.3l-9.5,42.7c-1,0.2-2.4,0.3-4.1,0.3
			c-1.7,0-2.7-0.8-3-2.4l-6.7-35.3h-0.4c-1.4,7.5-2.5,12.9-3.2,16.2l-4.6,21.3c-1,0.2-2.4,0.3-4.1,0.3C9.6,191.5,8.6,190.7,8.3,189z
			"/>
		<path fill="#FFFFFF" d="M59.4,164.4v26.9c-0.5,0.1-1.3,0.2-2.1,0.2c-0.9,0-1.6-0.1-2.1-0.2v-24.7c0-1.2-0.2-2-0.6-2.4
			c-0.4-0.4-1.1-0.6-2-0.6H52c-0.1-0.5-0.2-1.1-0.2-1.5c0-0.5,0.1-1,0.2-1.7c1.2-0.2,2.2-0.3,3-0.3h0.5c1.2,0,2.2,0.4,2.9,1.1
			C59.1,162,59.4,163.1,59.4,164.4z M53.7,154.1c-0.3-0.6-0.4-1.4-0.4-2.3c0-0.9,0.1-1.7,0.4-2.2c0.5-0.4,1.4-0.6,2.7-0.6
			c1.2,0,2.1,0.2,2.6,0.6c0.3,0.5,0.4,1.2,0.4,2.2c0,0.9-0.1,1.7-0.4,2.3c-0.4,0.4-1.3,0.6-2.6,0.6
			C55.1,154.7,54.2,154.5,53.7,154.1z"/>
		<path fill="#FFFFFF" d="M69,162.3c0.4-1.1,1-1.9,1.9-2.4c2.3,0.9,3.7,2.8,4.3,5.6c1.9-3.8,4.7-5.6,8.5-5.6c0.8,0,1.8,0.1,2.8,0.3
			c0,1.7-0.3,3.1-1,4.1c-0.4,0-1.1-0.1-2.1-0.1c-3.6,0-6.2,2-7.9,6v21.1c-0.5,0.1-1.3,0.2-2.1,0.2c-0.9,0-1.6-0.1-2.1-0.2v-22.6
			C71.3,166,70.5,163.9,69,162.3z"/>
		<path fill="#FFFFFF" d="M89.4,188.9c0.1-1.2,0.7-2.3,1.8-3.2c3.5,1.9,6.3,2.9,8.6,2.9c2.3,0,4.1-0.5,5.3-1.4
			c1.3-0.9,1.9-2.2,2-3.7c0-2.3-1.6-4.1-4.7-5.2l-3.6-1.4c-5.4-2.1-8.1-5-8.1-8.7c0-2.6,1-4.7,3-6.3c2-1.6,4.6-2.3,7.7-2.3
			c3.1,0,6.2,0.7,9.2,2c0,1.4-0.4,2.5-1.3,3.4c-2.8-1.3-5.3-1.9-7.5-1.9c-2.2,0-3.9,0.4-5,1.3c-1.1,0.9-1.6,1.9-1.6,3.2
			c0,1.2,0.4,2.2,1.2,2.9c0.8,0.7,2,1.4,3.8,2.1l3.7,1.5c5.1,2,7.7,5,7.7,9c0,2.7-1.1,4.9-3.2,6.5c-2.1,1.6-5,2.4-8.6,2.4
			C96.2,192,92.8,191,89.4,188.9z"/>
		<path fill="#FFFFFF" d="M124.9,164.4v26.9c-0.5,0.1-1.3,0.2-2.1,0.2c-0.9,0-1.6-0.1-2.1-0.2v-24.7c0-1.2-0.2-2-0.6-2.4
			c-0.4-0.4-1.1-0.6-2-0.6h-0.6c-0.1-0.5-0.2-1.1-0.2-1.5c0-0.5,0.1-1,0.2-1.7c1.2-0.2,2.2-0.3,3-0.3h0.5c1.2,0,2.2,0.4,2.9,1.1
			C124.6,162,124.9,163.1,124.9,164.4z M119.1,154.1c-0.3-0.6-0.4-1.4-0.4-2.3c0-0.9,0.1-1.7,0.4-2.2c0.5-0.4,1.4-0.6,2.7-0.6
			s2.1,0.2,2.6,0.6c0.3,0.5,0.4,1.2,0.4,2.2c0,0.9-0.1,1.7-0.4,2.3c-0.4,0.4-1.3,0.6-2.6,0.6C120.6,154.7,119.7,154.5,119.1,154.1z"
			/>
		<path fill="#FFFFFF" d="M159.6,169.5v15.9c0,2.5,0.2,4.2,0.6,5.2c-0.6,0.6-1.5,0.9-2.7,0.9c-1.5,0-2.2-0.9-2.2-2.8V171
			c0-2.7-0.3-4.5-1-5.7c-0.7-1.1-1.9-1.7-3.7-1.7c-1.8,0-3.6,0.5-5.5,1.4c-1.9,0.9-3.5,2.2-4.7,3.6v22.6c-0.6,0.1-1.3,0.2-2.1,0.2
			c-0.8,0-1.6-0.1-2.1-0.2v-30.8l0.4-0.4h1.6c0.9,0,1.5,0.2,1.8,0.7c0.3,0.5,0.4,1.2,0.4,2.3v1.3c1.4-1.4,3.1-2.5,5.1-3.4
			c2-0.8,4-1.3,6-1.3c2.8,0,4.9,0.9,6.2,2.7C159,164.3,159.6,166.6,159.6,169.5z"/>
		<path fill="#FFFFFF" d="M178.9,191.8c-3.4,0-6.1-1.4-7.9-4.3c-1.9-2.8-2.8-6.8-2.8-11.9c0-5.1,1.2-9.1,3.6-11.9
			c2.4-2.8,5.2-4.2,8.4-4.2c3.2,0,6.1,1.1,8.7,3.4c0.6-1.5,1.7-2.5,3.2-3.1c0.9,0.5,1.6,1.2,2,2.2c-1.2,1.2-1.8,3.5-1.8,7v20.1
			c0,5.8-0.9,9.8-2.8,12.1c-2.1,2.6-5.1,3.9-9,3.9c-3.9,0-7.5-0.7-10.9-2.1c0.1-1.3,0.5-2.5,1.3-3.4c2.8,1.3,5.4,2,7.8,2
			c2.4,0,4.2-0.3,5.4-0.8c1.2-0.5,2.1-1.3,2.7-2.3c1-1.8,1.5-4.2,1.5-7.2v-3.8C185.5,190.4,182.3,191.8,178.9,191.8z M188.2,183.1
			v-16.5c-2.5-2.1-5-3.2-7.5-3.2c-2.4,0-4.4,1-5.9,3.1c-1.5,2.1-2.3,5.2-2.3,9.3c0,4.1,0.6,7.2,1.9,9.2c1.3,2,2.9,3,4.7,3
			c1.9,0,3.6-0.5,5.1-1.4C185.9,185.7,187.2,184.5,188.2,183.1z"/>
	</g>
	<g>
		<g>
			<path fill="#FFFFFF" d="M99.4,113.9l-3-3.6c0.4-0.3,9.7-8.1,23-12.8c13.4-4.7,28.9-2.8,29.5-2.7l-0.6,4.7c-0.1,0-15-1.9-27.3,2.4
				C108.5,106.3,99.5,113.8,99.4,113.9z"/>
		</g>
		<g>
			<path fill="#FFFFFF" d="M97.3,96c-2.4-0.7-23.2-6.7-26.9-14.5c-2.1-4.4-2.1-9.8-2.2-15c0-3.8-0.1-7.4-0.9-10.4
				c-1.7-6.2-4.7-8.1-4.9-8.2l2.3-4.1c0.5,0.3,4.8,2.8,7.1,11c1,3.6,1,7.6,1.1,11.6c0,4.7,0.1,9.5,1.7,13c2.1,4.4,15.8,9.7,23.9,12
				L97.3,96z"/>
		</g>
		<g>
			<path fill="#FFFFFF" d="M98.9,73.5c-0.9,0-1.5,0-1.6,0l0.3-4.7c0.1,0,9.4,0.5,16.4-3.2c7.3-3.8,20.8-16.2,21-16.3l3.2,3.5
				c-0.6,0.5-14.2,12.9-22,17C109.8,73.1,102.2,73.5,98.9,73.5z"/>
		</g>
		<g>
			<path fill="#FFFFFF" d="M99.3,126.5c-0.8-0.1-20-1.3-28.7-3.7c-8.9-2.5-23.9-18.6-25.6-20.5l3.5-3.2c4.3,4.7,17,17.3,23.4,19.1
				c8.2,2.3,27.5,3.5,27.7,3.5L99.3,126.5z"/>
		</g>
		<g>
			<path fill="#FFFFFF" stroke="#1D1D1B" stroke-width="4" stroke-miterlimit="10" d="M142,112.1"/>
		</g>
		<g>
			<path fill="#FFFFFF" stroke="#1D1D1B" stroke-width="4" stroke-miterlimit="10" d="M99.5,132.4"/>
		</g>
		<g>
			<path fill="#FFFFFF" d="M99.5,141c-1.3,0-2.3-1-2.3-2.3c0-0.7-2.9-67.5-2.9-85.4c0-18.4,6.9-32.1,7.2-32.7c0.6-1.2,2-1.6,3.2-1
				c1.2,0.6,1.6,2,1,3.2C105.6,23,99,36.1,99,53.3c0,17.8,2.8,84.5,2.9,85.2c0.1,1.3-1,2.4-2.3,2.5C99.6,141,99.5,141,99.5,141z"/>
		</g>
		<g>
			<path fill="#FFFFFF" d="M107.1,24.1c-6.7,0-12.1-5.4-12.1-12.1c0-6.7,5.4-12.1,12.1-12.1c6.7,0,12.1,5.4,12.1,12.1
				C119.2,18.7,113.8,24.1,107.1,24.1z M107.1,4.7c-4.1,0-7.4,3.3-7.4,7.4c0,4.1,3.3,7.4,7.4,7.4c4.1,0,7.4-3.3,7.4-7.4
				C114.5,8,111.2,4.7,107.1,4.7z"/>
		</g>
		<g>
			<path fill="#FFFFFF" d="M158.3,110.6c-6.7,0-12.1-5.4-12.1-12.1s5.4-12.1,12.1-12.1c6.7,0,12.1,5.4,12.1,12.1
				S164.9,110.6,158.3,110.6z M158.3,91.2c-4.1,0-7.4,3.3-7.4,7.4c0,4.1,3.3,7.4,7.4,7.4c4.1,0,7.4-3.3,7.4-7.4
				C165.6,94.5,162.3,91.2,158.3,91.2z"/>
		</g>
		<g>
			<path fill="#FFFFFF" d="M56.7,51.2c-6.7,0-12.1-5.4-12.1-12.1S50,27.1,56.7,27.1s12.1,5.4,12.1,12.1S63.3,51.2,56.7,51.2z
				 M56.7,31.8c-4.1,0-7.4,3.3-7.4,7.4s3.3,7.4,7.4,7.4c4.1,0,7.4-3.3,7.4-7.4S60.7,31.8,56.7,31.8z"/>
		</g>
		<g>
			<path fill="#FFFFFF" d="M142.9,55.7c-6.7,0-12.1-5.4-12.1-12.1s5.4-12.1,12.1-12.1c6.7,0,12.1,5.4,12.1,12.1
				S149.5,55.7,142.9,55.7z M142.9,36.3c-4.1,0-7.4,3.3-7.4,7.4s3.3,7.4,7.4,7.4c4.1,0,7.4-3.3,7.4-7.4S146.9,36.3,142.9,36.3z"/>
		</g>
		<g>
			<path fill="#FFFFFF" d="M40,105.8c-6.7,0-12.1-5.4-12.1-12.1c0-6.7,5.4-12.1,12.1-12.1s12.1,5.4,12.1,12.1
				C52.1,100.4,46.7,105.8,40,105.8z M40,86.4c-4.1,0-7.4,3.3-7.4,7.4c0,4.1,3.3,7.4,7.4,7.4c4.1,0,7.4-3.3,7.4-7.4
				C47.4,89.7,44.1,86.4,40,86.4z"/>
		</g>
	</g>
</g>
</svg>
