<?xml version="1.0" encoding="utf-8"?><!DOCTYPE svg PUBLIC "-//W3C//DTD SVG 1.1//EN" "http://www.w3.org/Graphics/SVG/1.1/DTD/svg11.dtd"><svg version="1.1" baseProfile="full" xmlns="http://www.w3.org/2000/svg" xmlns:xlink="http://www.w3.org/1999/xlink" xmlns:ev="http://www.w3.org/2001/xml-events"   height="148px"   width="176px" ><path fill="rgb( 214, 218, 223 )" d="M7.333,0.09400000000005 C7.333,0.09400000000005 168.667,0.09400000000005 168.667,0.09400000000005 C172.717,0.09400000000005 176,3.38400000000001 176,7.44399999999996 C176,7.44399999999996 176,147.094 176,147.094 C176,147.094 0,147.094 0,147.094 C0,147.094 0,7.44399999999996 0,7.44399999999996 C0,3.38400000000001 3.28299999999999,0.09400000000005 7.333,0.09400000000005 Z "/><path fill="rgb( 129, 189, 88 )" d="M13,35.0940000000001 C13,35.0940000000001 163,35.0940000000001 163,35.0940000000001 C163,35.0940000000001 163,137.094 163,137.094 C163,137.094 13,137.094 13,137.094 C13,137.094 13,35.0940000000001 13,35.0940000000001 Z "/><path fill-opacity="0.2" fill="rgb( 255, 255, 255 )" d="M13.2,35.374 C13.2,35.374 162.8,35.374 162.8,35.374 C162.8,35.374 162.8,51.544 162.8,51.544 C162.8,51.544 13.2,51.544 13.2,51.544 C13.2,51.544 13.2,35.374 13.2,35.374 Z "/><path fill="rgb( 255, 255, 255 )" d="M92.4,66.244 C92.4,66.244 120.954,66.244 120.954,66.244 C120.954,66.244 120.954,75.064 120.954,75.064 C120.954,75.064 92.4,75.064 92.4,75.064 C92.4,75.064 92.4,66.244 92.4,66.244 Z "/><path fill="rgb( 255, 255, 255 )" d="M92.4,80.944 C92.4,80.944 154,80.944 154,80.944 C154,80.944 154,89.764 154,89.764 C154,89.764 92.4,89.764 92.4,89.764 C92.4,89.764 92.4,80.944 92.4,80.944 Z "/><path fill="rgb( 255, 255, 255 )" d="M92.4,97.114 C92.4,97.114 154,97.114 154,97.114 C154,97.114 154,105.934 154,105.934 C154,105.934 92.4,105.934 92.4,105.934 C92.4,105.934 92.4,97.114 92.4,97.114 Z "/><path fill="rgb( 255, 255, 255 )" d="M92.4,111.814 C92.4,111.814 154,111.814 154,111.814 C154,111.814 154,120.634 154,120.634 C154,120.634 92.4,120.634 92.4,120.634 C92.4,120.634 92.4,111.814 92.4,111.814 Z "/><path fill="rgb( 255, 255, 255 )" d="M23.467,66.244 C23.467,66.244 83.6,66.244 83.6,66.244 C83.6,66.244 83.6,120.634 83.6,120.634 C83.6,120.634 23.467,120.634 23.467,120.634 C23.467,120.634 23.467,66.244 23.467,66.244 Z "/><path fill="rgb( 73, 80, 84 )" d="M5,0.09400000000005 C5,0.09400000000005 171,0.09400000000005 171,0.09400000000005 C173.761,0.09400000000005 176,2.33199999999999 176,5.09400000000005 C176,5.09400000000005 176,26.0940000000001 176,26.0940000000001 C176,26.0940000000001 0,26.0940000000001 0,26.0940000000001 C0,26.0940000000001 0,5.09400000000005 0,5.09400000000005 C0,2.33199999999999 2.239,0.09400000000005 5,0.09400000000005 Z "/><path fill="rgb( 238, 241, 245 )" d="M17,10.384 C19.099,10.384 20.8,12.029 20.8,14.059 C20.8,16.088 19.099,17.734 17,17.734 C14.901,17.734 13.2,16.088 13.2,14.059 C13.2,12.029 14.901,10.384 17,10.384 Z "/><path fill="rgb( 238, 241, 245 )" d="M27.133,10.384 C29.232,10.384 30.933,12.029 30.933,14.059 C30.933,16.088 29.232,17.734 27.133,17.734 C25.035,17.734 23.333,16.088 23.333,14.059 C23.333,12.029 25.035,10.384 27.133,10.384 Z "/><path fill="rgb( 238, 241, 245 )" d="M37.267,10.384 C39.365,10.384 41.067,12.029 41.067,14.059 C41.067,16.088 39.365,17.734 37.267,17.734 C35.168,17.734 33.467,16.088 33.467,14.059 C33.467,12.029 35.168,10.384 37.267,10.384 Z "/><path fill="rgb( 238, 241, 245 )" d="M46.933,10.384 C46.933,10.384 162.8,10.384 162.8,10.384 C162.8,10.384 162.8,17.734 162.8,17.734 C162.8,17.734 46.933,17.734 46.933,17.734 C46.933,17.734 46.933,10.384 46.933,10.384 Z "/></svg>